<svg id="Layer_1" data-name="Layer 1" xmlns="http://www.w3.org/2000/svg" viewBox="0 0 68 90"><defs><style>.cls-1{fill:#75bf44;}</style></defs><title>noun_290542_cc</title><path class="cls-1" d="M43,28a3,3,0,0,1-3-3V0H3.67A3.66,3.66,0,0,0,0,3.67V86.33A3.67,3.67,0,0,0,3.68,90H64.32A3.68,3.68,0,0,0,68,86.32V28H43Zm6.92,35.4a5.4,5.4,0,0,1-2.45.55A19.48,19.48,0,0,1,39.3,62c-4.62.55-8.16,1.1-10.88,2.19a0.54,0.54,0,0,0-.54.27c-3.26,5.76-6,8.5-8.16,8.5a1.31,1.31,0,0,1-1.09-.27l-1.36-.82V71.63A2.49,2.49,0,0,1,17,70.26c0.27-1.37,1.9-3.84,5.17-5.76,0.54-.27,1.36-0.82,2.45-1.37,0.82-1.37,1.63-3,2.72-4.94a58.3,58.3,0,0,0,3-8c-1.09-3.29-1.63-5.21-.54-9A2.6,2.6,0,0,1,32,39H32.5a3.84,3.84,0,0,1,1.63.55c1.9,1.92,1.09,6.31,0,9.87v0.27a19.83,19.83,0,0,0,4.35,7.13,19.08,19.08,0,0,0,2.45,1.65c1.36,0,2.45-.27,3.54-0.27,3.26,0,5.44.55,6.26,1.92A3.5,3.5,0,0,1,51,61.76a16.82,16.82,0,0,1-1.09,1.65h0ZM32.23,52.71a57.36,57.36,0,0,1-2.72,6.58c-0.54,1.1-1.09,1.92-1.63,3h0.54a40.89,40.89,0,0,1,9-2.47A3.76,3.76,0,0,1,36.31,59a27.9,27.9,0,0,1-4.08-6.31h0Zm16.59,8.5c-0.27-.27-1.36-1.1-5.17-1.1H43.11v0.27a14.51,14.51,0,0,0,5.17,1.37H49.1V61.48a0.27,0.27,0,0,1-.27-0.27h0Zm-25,4.11a5.94,5.94,0,0,0-1.36.82,13.5,13.5,0,0,0-3.54,4.39c1.63-.27,3.26-1.92,4.9-5.21h0ZM32,46.4a10.25,10.25,0,0,0,.54-2.47V43.39c0.27-1.37.27-2.47,0-2.74V40.37l-0.27-.27a0.27,0.27,0,0,1-.27.27,11.24,11.24,0,0,0,0,6h0ZM68,24H46a2,2,0,0,1-2-2V0L68,24h0Z"/></svg>